HIERARCHY
ROOT Hips
{
	OFFSET 0.00000 0.00000 0.00000
	CHANNELS 6 Xposition Yposition Zposition Zrotation Yrotation Xrotation 
	JOINT LHipJoint
	{
		OFFSET 0 0 0
		CHANNELS 3 Zrotation Yrotation Xrotation
		JOINT LeftUpLeg
		{
			OFFSET 1.38280 -1.96574 0.54427
			CHANNELS 3 Zrotation Yrotation Xrotation
			JOINT LeftLeg
			{
				OFFSET 2.72096 -7.47578 0.00000
				CHANNELS 3 Zrotation Yrotation Xrotation
				JOINT LeftFoot
				{
					OFFSET 2.73041 -7.50176 0.00000
					CHANNELS 3 Zrotation Yrotation Xrotation
					JOINT LeftToeBase
					{
						OFFSET 0.16150 -0.44371 2.18031
						CHANNELS 3 Zrotation Yrotation Xrotation
						End Site
						{
							OFFSET 0.00000 -0.00000 1.12127
						}
					}
				}
			}
		}
	}
	JOINT RHipJoint
	{
		OFFSET 0 0 0
		CHANNELS 3 Zrotation Yrotation Xrotation
		JOINT RightUpLeg
		{
			OFFSET -1.57224 -1.96575 0.54427
			CHANNELS 3 Zrotation Yrotation Xrotation
			JOINT RightLeg
			{
				OFFSET -2.95935 -8.13076 0.00000
				CHANNELS 3 Zrotation Yrotation Xrotation
				JOINT RightFoot
				{
					OFFSET -2.52345 -6.93311 0.00000
					CHANNELS 3 Zrotation Yrotation Xrotation
					JOINT RightToeBase
					{
						OFFSET -0.04475 -0.10171 1.86688
						CHANNELS 3 Zrotation Yrotation Xrotation
						End Site
						{
							OFFSET -0.00000 -0.00000 0.95157
						}
					}
				}
			}
		}
	}
	JOINT LowerBack
	{
		OFFSET 0 0 0
		CHANNELS 3 Zrotation Yrotation Xrotation
		JOINT Spine
		{
			OFFSET 0.00669 2.07367 0.09104
			CHANNELS 3 Zrotation Yrotation Xrotation
			JOINT Spine1
			{
				OFFSET -0.00664 2.06198 -0.04732
				CHANNELS 3 Zrotation Yrotation Xrotation
				JOINT Neck
				{
					OFFSET 0 0 0
					CHANNELS 3 Zrotation Yrotation Xrotation
					JOINT Neck1
					{
						OFFSET -0.00021 1.49948 0.16345
						CHANNELS 3 Zrotation Yrotation Xrotation
						JOINT Head
						{
							OFFSET 0.06080 1.50567 -0.26702
							CHANNELS 3 Zrotation Yrotation Xrotation
							End Site
							{
								OFFSET 0.01726 1.56470 -0.11854
							}
						}
					}
				}
				JOINT LeftShoulder
				{
					OFFSET 0 0 0
					CHANNELS 3 Zrotation Yrotation Xrotation
					JOINT LeftArm
					{
						OFFSET 3.14993 0.82932 -0.22488
						CHANNELS 3 Zrotation Yrotation Xrotation
						JOINT LeftForeArm
						{
							OFFSET 5.68236 -0.00000 -0.00000
							CHANNELS 3 Zrotation Yrotation Xrotation
							JOINT LeftHand
							{
								OFFSET 3.17112 -0.00000 0.00000
								CHANNELS 3 Zrotation Yrotation Xrotation
								JOINT LeftFingerBase
								{
									OFFSET 0 0 0
									CHANNELS 3 Zrotation Yrotation Xrotation
									JOINT LeftHandIndex1
									{
										OFFSET 0.63269 -0.00000 0.00000
										CHANNELS 3 Zrotation Yrotation Xrotation
										End Site
										{
											OFFSET 0.51009 -0.00000 0.00000
										}
									}
								}
								JOINT LThumb
								{
									OFFSET 0 0 0
									CHANNELS 3 Zrotation Yrotation Xrotation
									End Site
									{
										OFFSET 0.51788 -0.00000 0.51788
									}
								}
							}
						}
					}
				}
				JOINT RightShoulder
				{
					OFFSET 0 0 0
					CHANNELS 3 Zrotation Yrotation Xrotation
					JOINT RightArm
					{
						OFFSET -3.10571 0.91279 -0.33334
						CHANNELS 3 Zrotation Yrotation Xrotation
						JOINT RightForeArm
						{
							OFFSET -5.87120 -0.00000 -0.00000
							CHANNELS 3 Zrotation Yrotation Xrotation
							JOINT RightHand
							{
								OFFSET -3.37589 -0.00000 0.00000
								CHANNELS 3 Zrotation Yrotation Xrotation
								JOINT RightFingerBase
								{
									OFFSET 0 0 0
									CHANNELS 3 Zrotation Yrotation Xrotation
									JOINT RightHandIndex1
									{
										OFFSET -0.60326 -0.00000 0.00000
										CHANNELS 3 Zrotation Yrotation Xrotation
										End Site
										{
											OFFSET -0.48636 -0.00000 0.00000
										}
									}
								}
								JOINT RThumb
								{
									OFFSET 0 0 0
									CHANNELS 3 Zrotation Yrotation Xrotation
									End Site
									{
										OFFSET -0.49379 -0.00000 0.49379
									}
								}
							}
						}
					}
				}
			}
		}
	}
}
MOTION
Frames: 7
Frame Time: 0.00877193
0.00 0.00 0.00 -427.5470 262.1530 453.8910 0.0000 0.0000 0.0000 -5.2129 -18.7080 -88.0812 21.7816 19.9237 95.2153 0.7420 -0.0074 -16.2800 4.8717 -13.2378 -40.2654 0.0000 0.0000 0.0000 9.0180 16.7424 -61.5042 -13.1104 -18.8217 69.4682 1.6688 22.1678 9.7868 -1.4699 -7.6615 21.6905 0.9978 0.1800 -0.3726 0.0471 0.2060 2.1847 -0.5058 0.1155 2.4519 -4.8637 -3.5256 -25.8672 1.4053 -3.4481 7.0385 0.7903 -1.7533 6.3104 -0.0000 -0.0000 0.0000 -76.1121 -27.7797 34.1566 70.4690 -58.5084 -43.1704 -0.0000 0.0000 -46.0158 22.7645 34.8182 13.4740 -7.1250 0.0000 -0.0000 -13.8725 66.5128 -7.2538 -0.0000 -0.0000 0.0000 76.7794 32.5690 19.0416 -39.2138 47.5971 -17.8565 0.0000 -0.0000 -8.6551 -25.8202 28.5600 -13.0246 7.1250 -0.0000 -0.0000 2.7812 1.1481 2.8397
0.00 0.00 0.00 -432.0580 263.0630 454.8220 0.0000 0.0000 0.0000 -2.3979 -18.7377 -99.0905 23.5762 19.6906 100.5082 0.6349 -0.8085 -14.7983 4.8887 -13.2574 -40.3398 0.0000 0.0000 0.0000 11.6627 16.5702 -54.3195 -11.2374 -18.0493 63.5502 1.3390 19.9634 7.7016 -2.0322 -8.9328 25.5855 0.2397 1.1777 -0.9809 -0.5261 1.5660 1.9316 -0.6240 0.7870 2.5514 -4.7170 -4.2529 -25.2257 2.4342 -4.5960 9.1978 0.9538 -2.1823 6.9906 -0.0000 -0.0000 0.0000 -61.0575 -56.8196 22.7480 107.4866 -58.8125 -75.0834 -0.0000 0.0000 -50.3128 18.5134 34.0682 10.6240 -7.1250 0.0000 -0.0000 -18.1990 64.5932 -8.7685 -0.0000 -0.0000 0.0000 57.9123 59.6046 9.1063 -60.7967 56.5185 -35.0048 0.0000 -0.0000 -17.3397 -27.9014 28.5474 -14.2002 7.1250 -0.0000 -0.0000 1.5668 1.6257 1.6112
0.00 0.00 0.00 -440.7090 262.1040 461.6370 0.0000 0.0000 0.0000 -0.8513 -18.2380 -105.0127 25.4505 19.2723 106.1241 0.5850 -0.9635 -14.1500 4.6606 -12.9911 -39.3352 0.0000 0.0000 0.0000 12.0158 14.6456 -46.5234 -7.9132 -16.0550 52.2493 0.6861 14.6762 8.0055 -2.2581 -9.3841 27.0044 -1.7154 1.1817 -0.7627 -0.8051 1.6066 1.1166 0.1694 0.7846 1.5471 -4.8640 -4.3180 -23.8610 2.9369 -4.7810 11.1658 1.1266 -2.2192 7.4627 0.0000 0.0000 0.0000 -39.0792 -69.4278 -0.5769 119.9966 -56.3108 -85.6560 -0.0000 0.0000 -53.4512 15.7384 33.1587 8.7626 -7.1250 0.0000 -0.0000 -20.4685 63.0039 -9.1446 0.0000 0.0000 0.0000 28.9463 69.8511 -15.8608 -77.5418 59.4053 -49.2324 0.0000 -0.0000 -22.0582 -27.2080 28.7863 -13.9049 7.1250 -0.0000 -0.0000 2.0095 1.7107 2.0699
0.00 0.00 0.00 -445.5830 261.3930 465.5210 0.0000 0.0000 0.0000 -0.0811 -17.4511 -107.1843 26.9137 18.8131 110.6067 0.5531 -1.2653 -13.6702 4.1601 -12.3704 -37.0554 0.0000 0.0000 0.0000 12.0630 13.5505 -38.8184 -4.7424 -13.0877 39.6978 0.0708 7.0813 8.2076 -2.3661 -9.5903 27.6599 -2.9161 1.1211 -0.4818 -0.8825 1.5129 0.2323 0.7419 0.7460 0.4563 -4.8631 -4.3938 -22.5122 3.0777 -5.0089 13.2260 1.1508 -2.3153 7.9521 0.0000 0.0000 0.0000 -25.5930 -72.7512 -15.3080 124.6444 -54.9396 -89.4932 -0.0000 0.0000 -54.5811 14.9826 32.9566 8.2834 -7.1250 0.0000 -0.0000 -21.1129 62.6222 -9.2562 0.0000 0.0000 0.0000 10.3852 72.3056 -32.8882 -86.8350 59.9621 -57.2594 0.0000 -0.0000 -23.7426 -27.0015 29.3557 -14.0255 7.1250 -0.0000 -0.0000 2.2237 2.2613 2.3115
0.00 0.00 0.00 -447.6950 260.4430 466.9930 0.0000 0.0000 0.0000 -0.1789 -16.6484 -107.8256 28.1245 18.3375 114.4065 0.4957 -1.4356 -12.8804 3.9163 -12.0481 -35.9025 0.0000 0.0000 0.0000 10.7252 14.4722 -29.4067 -1.8446 -8.5346 24.3500 -0.0871 -6.3883 6.4696 -2.4091 -9.6708 27.9170 -3.9154 1.0800 -0.6461 -1.1268 1.4365 -0.7339 1.0402 0.7286 -0.4584 -4.4168 -4.3944 -20.3484 2.7214 -5.2462 15.2644 0.9497 -2.4614 8.2657 -0.0000 -0.0000 0.0000 -18.8186 -73.9753 -22.7254 128.5828 -53.5513 -92.6899 -0.0000 0.0000 -55.2024 15.5148 34.4568 8.9262 -7.1250 0.0000 -0.0000 -21.9665 64.1369 -10.4282 -0.0000 -0.0000 0.0000 0.3367 72.9391 -41.5281 -97.1433 59.8063 -66.1823 0.0000 -0.0000 -23.6474 -26.1629 29.0463 -13.4151 7.1250 -0.0000 -0.0000 2.6583 1.7375 2.7406
0.00 0.00 0.00 -446.7290 259.9840 465.7890 0.0000 0.0000 0.0000 -0.4449 -15.8930 -107.7136 28.8798 17.9934 116.8287 0.4404 -1.7909 -12.0428 3.7088 -11.7625 -34.8968 0.0000 0.0000 0.0000 8.8989 17.4033 -21.9621 -0.4516 -4.3112 11.9539 1.1098 -20.2309 1.8168 -1.5506 -7.8594 22.2879 -4.1829 1.1337 -0.9241 -1.2798 1.4964 -1.3124 1.0306 0.7712 -0.9029 -4.2776 -4.3969 -19.1515 2.6391 -5.3952 16.7573 0.8898 -2.5493 8.5648 0.0000 -0.0000 0.0000 -16.6033 -74.0563 -25.1912 131.1071 -52.5391 -94.7073 -0.0000 0.0000 -56.0772 16.4560 34.7829 9.5647 -7.1250 0.0000 -0.0000 -21.2469 64.6911 -10.3444 0.0000 -0.0000 0.0000 -4.2400 72.7900 -44.4474 -104.8623 59.1487 -72.8344 0.0000 -0.0000 -24.3285 -26.3456 28.2659 -13.1984 7.1250 -0.0000 -0.0000 2.4285 0.9592 2.4710
0.00 0.00 0.00 -444.7520 259.9260 463.8470 0.0000 0.0000 0.0000 -0.7564 -14.9672 -107.5291 29.5665 17.6465 119.0723 0.3794 -2.1146 -11.0945 3.5709 -11.5664 -34.2149 0.0000 0.0000 0.0000 8.7092 15.2876 -16.4470 0.0000 -0.0000 0.0000 3.2616 -30.0328 -10.5680 -3.4265 -11.3554 33.4880 -3.9711 1.2911 -1.4405 -1.3588 1.7101 -1.7829 0.8365 0.8813 -1.0985 -3.9319 -4.4325 -18.2118 2.3912 -5.5926 17.9007 0.7321 -2.6626 8.7782 0.0000 0.0000 0.0000 -17.2617 -73.5681 -24.5708 133.8833 -51.3040 -96.8930 -0.0000 0.0000 -56.9882 18.0209 35.2206 10.6264 -7.1250 0.0000 -0.0000 -19.9200 65.5298 -10.0589 0.0000 0.0000 0.0000 -7.9534 72.1858 -46.1043 -111.1954 58.2325 -78.2469 0.0000 -0.0000 -25.8787 -27.4779 28.7115 -14.0279 7.1250 -0.0000 -0.0000 1.8404 1.6966 1.8951
